# xmcd CD database file
#
# Track frame offsets:
#	150
#	14824
#	29784
#	43576
#	58951
#	68038
#	89368
#	107511
#	115630
#	128997
#
# Disc length: 1863 seconds
#
# Revision: 0
# Processed by: cddbd v1.5.1PL0 Copyright (c) Steve Scherf et al.
# Submitted via: CDex 1.51
#
DISCID=8d07450a
DTITLE=TOMOVSKY - 地球人
DYEAR=1900
DGENRE=Rock
TTITLE0=TV
TTITLE1=ラッキーチェア
TTITLE2=クルマ
TTITLE3=地球人
TTITLE4=Oflo
TTITLE5=サメルンダ
TTITLE6=キミのペース
TTITLE7=0.009
TTITLE8=ILS
TTITLE9=宇宙人
EXTD=
EXTT0=
EXTT1=
EXTT2=
EXTT3=
EXTT4=
EXTT5=
EXTT6=
EXTT7=
EXTT8=
EXTT9=
PLAYORDER=
